<svg id="Layer_1" data-name="Layer 1" xmlns="http://www.w3.org/2000/svg" viewBox="0 0 1180.56 731.85"><defs><style>.cls-1{fill:#ed7699;}.cls-2{fill:#e8a;}.cls-3{fill:#e99ac3;}.cls-4{fill:#ee5578;}.cls-5{fill:#e89;}.cls-6{fill:#eecddd;}</style></defs><title>map</title><g id="lzV0bj.tif"><path class="cls-1" d="M689.42,618.14c-3.57,1.39-7.16,2.69-10.68,4.18a31.42,31.42,0,0,0-13,9.62c-2.61,3.37-6.13,5.9-9.56,8.4a211.59,211.59,0,0,1-24.7,16c-13.66,7.32-22.31,19.26-27.4,33.58-1.93,5.44-1.51,11.58-1.72,17.45a5.22,5.22,0,0,0,1.14,2.75c3.15,5.55,6.23,11.13,9.47,16.62,1,1.69.87,2.53-1.13,2.85a.82.82,0,0,0-.28.11c-7.13,4.21-14.19,1.86-21.27-.2-9.94-2.89-19.35-7.1-28.79-11.27a3.52,3.52,0,0,1-2.09-2c-1.76-4.7-4.61-8.8-7.44-12.85-2.36-3.37-2.24-7.17-2.43-10.78a23.53,23.53,0,0,0-5-13.53c-10-13.29-19.63-26.79-29.37-40.25-2-2.73-5-4.12-7.58-6-1.78-1.26-3.34-2.56-4.09-4.68a3.88,3.88,0,0,0-4-2.9c-5.36-.18-10.71-.71-16.05-1.13a33.17,33.17,0,0,1-3.3-.47c-1.61-.29-2.88-2.42-4.69-1.3-3,1.84-6.51,2.83-8.53,6.08-3.9,6.28-8,12.45-11.84,18.75-1.12,1.83-1.92,2.31-4,1-9.77-6.14-19.65-12.11-29.53-18.07-1.5-.91-2.51-1.86-2.57-3.74a21.48,21.48,0,0,0-.67-3.87c-3.18-15.08-12.33-26-24.53-34.64-2.63-1.87-5.06-3.61-5-7.25,0-1.41-1.33-1.94-2.3-2.63l-14.62-10.36c0-5.34,0-5.34,5.31-5.34,26.47,0,52.93,0,79.39.06,2.85,0,3.49-.82,3.49-3.56-.09-40,0-80.09-.11-120.14,0-2.48.56-3.25,3.15-3.23,21.29.1,42.58.05,63.88.06,1.41,0,2.82.13,4.24.19q0,24.5,0,49c0,1.39-.13,2.65,1.28,3.77,4.31,3.41,8.74,6.19,14.59,5.05.49-.1,1,0,1.52,0,1.53-.17,2.35.39,2.11,2s.79,2.17,2,2.88c4.94,2.77,10.29,3,15.65,2.48,4.82-.43,8.74.77,11.76,4.6a5.1,5.1,0,0,0,5.44,1.79,32.38,32.38,0,0,1,9.68-.08c2.77.29,5.55.68,8.09-1.42,1.75-1.45,3.86-3.8,5.85-3.35s2.82,3.47,4,5.46,2.29,2.44,4.42,1.48c8.34-3.76,16.94-6.52,26.23-6.66,2.56,0,5-.17,7.32,1.18,3.35,1.89,6.91,3.4,10.29,5.24,2.14,1.15,2.48.43,2.47-1.66-.06-9.32,0-18.65,0-28,.89.95.5,2.12.5,3.18,0,8.38,0,16.77.06,25.15,0,.82-.68,2.46,1,2.32,3-.27,6,.87,9,.11,2.12-.53,2.7.35,2.69,2.31,0,4.64,0,9.29.09,13.93-.08,7.07,0,14.15-.28,21.21a8.43,8.43,0,0,0,3,7.12c8.92,8.21,12.63,18,11,30.46C689.47,596.05,689.83,607.15,689.42,618.14Z" transform="translate(-0.18 -0.15)"/><path class="cls-2" d="M.18,257.34v-9.11q6.12-9,12.25-18.06a4.05,4.05,0,0,0,1-2.48c-.25-6.95.54-13.93-.54-20.87l46.38,13.82,45.46,13.58c-1.41.1-1.67,1.05-2,2.25Q92.91,276.31,83,316.12A5.35,5.35,0,0,0,84,320.94c8,10.57,15.91,21.17,23.86,31.77q34.38,45.84,68.76,91.69c3.14,4.19,6.35,8.32,9.52,12.47,1.85,3.13,3.69,6.26,5.57,9.37a4.92,4.92,0,0,1,1,3.4,7.66,7.66,0,0,0,3.46,8.07c1.92,1.36,1.15,2.32-.4,3.3a51.11,51.11,0,0,0-12.67,12c-.77,1-1.3,1.8-.52,2.93,2.11,3,.41,4.34-2.27,5.47-1.21.5-3.22.63-3.24,2.32a47.65,47.65,0,0,0,.75,10.83c.42,1.84,3.36,1.86,5,2.93.31.2.8.27.6,1.11l-6.95,5.88c-4.6-1.28-9.37-1.3-14.06-1.83-11.74-1.32-23.51-2.4-35.26-3.57a2.6,2.6,0,0,0-.61-.07c-7,1.15-9.89-3.17-12.61-8.61-4.66-9.32-9.83-18.38-14.84-27.52-2.3-4.19-5.57-7.7-8.39-11.52-1.16-1.55-3-1.69-4.69-1.64-4.69.11-8.46-1.11-11.45-5.2-2.73-3.72-6.3-6.84-9.48-10.23A5.37,5.37,0,0,0,62,452.6c-4.28-.73-8.54-1.59-12.82-2.33-3.19-.55-6.17-4.3-5-7.37,2.3-6.14.63-11.49-1.78-17.13-4.51-10.61-8.68-21.36-12.73-32.16-1.22-3.26-1.58-6.86-2.29-10.31a4.38,4.38,0,0,1,.62-3.2c.52-.87,1-1.78,1.43-2.68,4.2-8.2,4.11-8.62-2.71-14.67-1.28-1.14-2.48-2.39-3.69-3.61a4.37,4.37,0,0,1-1.52-3.83c1.54-7.09-1-13.44-3.7-19.64-3.5-8.07-7.45-15.95-11.29-23.87a15.13,15.13,0,0,1-1.69-7c.17-7.18-.21-14.34.57-21.53.83-7.69-1.65-15-3.92-22.24C1.11,259.79.62,258.57.18,257.34Z" transform="translate(-0.18 -0.15)"/><path class="cls-3" d="M1061.6,331.66c.77,3.65,4.17,5,6.58,7a115.18,115.18,0,0,1,13.47,13c-2,1-4.24,1.23-6.38,1.73q-61,14.25-122,28.38c-2.33.54-3.45,1.56-4,3.79-.88,3.42-2.12,6.76-3,10.18a6.55,6.55,0,0,1-3.62,4.53C932,405.68,922.69,413,913.12,420c-7.34,5.34-13.7,10.91-14.42,20.66,0,.2-.06.4-.09.6-1.25.78-2.71.74-4.09,1-7.67,1.28-15.35,2.57-23,3.68-2.19.31-2.39,1-1.68,2.92,2.6,7,4.81,14.19,7.56,21.14,4.78,12.1,7.34,25.17,14.59,36.17,5.31,8.05,7.81,16.45,6.58,26a31.25,31.25,0,0,0,6.13,23.35c-.4,1-1.35,1.12-2.23,1.29l-24.66,4.88-34.19,6.76c-.79.16-2,.24-1.26,1.37,2.11,3.39,3.3,7.36,6.36,10.14-3.77.94-7.52,1.9-11.3,2.8-1.86.44-2.15-1.37-3.15-2.24-1.2-1-1.42-3.71-3-3.36s-1.11,2.93-1.9,4.39a3,3,0,0,0-.21,1.18c-.25,3.11-1.87,4.4-5,3.87a12.36,12.36,0,0,0-4.75.56c.26-3.53-1.32-6.69-2-10-2.16-9.93-5.94-19.47-5.48-30a195.05,195.05,0,0,0-.7-28.48c-1.1-10.54-2.67-21.06-2.74-31.69q-.09-13.83,0-27.64c0-1.89-.38-2.83-2.55-2.52-3.09.44-6.23.62-9.34,1q-17.75,2-35.5,4c.3-1.06.53-2.14.89-3.18q4.15-12,8.34-23.94c2.12-6.75,3.19-13.76,4.81-20.63,10.07-1.64,20.14-3.3,30.21-4.92q49.09-7.9,98.2-15.76c2.3-.36,4.82-.12,4.47-3.71,0-.54,1-1.22,1.56-1.77q14.88-14.06,29.8-28.11c4.29,1.75,8.59,3.47,12.87,5.26a3.7,3.7,0,0,0,3.38-.11c5.69-2.85,11.41-5.66,17.17-8.37a4.82,4.82,0,0,0,2.86-3.55c1.64-6.55,3.4-13.08,5.18-19.6.3-1.11.49-2.24,1.77-3,9.7-5.61,19.34-11.32,29-17,.25.17.59.28.74.52,4.91,7.79,13.13,10.56,21,13.72C1042.43,331.14,1052,331.4,1061.6,331.66Z" transform="translate(-0.18 -0.15)"/><path class="cls-3" d="M531.09,435.63c-1.42-.06-2.83-.19-4.24-.19-21.3,0-42.59,0-63.88-.06-2.59,0-3.16.75-3.15,3.23.07,40.05,0,80.09.11,120.14,0,2.74-.64,3.57-3.49,3.56-26.46-.11-52.92-.06-79.39-.06-5.28,0-5.28,0-5.31,5.34l-34.63,0c-.71,0-1.43,0-2.13,0-2.38.25-3.6,1.14-3.5,4,.22,5.8.92,5-5.13,5.07-5,.06-9.86-1-14.82-.59.6-8.38,1.24-16.76,1.78-25.15,1.12-17.38,2.16-34.77,3.26-52.16,1.33-21.22,2.55-42.45,4.13-63.65.52-6.93-.1-13.92,1.19-20.8l.62-.67q18.5.77,37,1.52,37.29,1.45,74.6,2.88,23.19.9,46.39,1.75a.65.65,0,0,1,0,.56c-5.55-.2-11.1.31-16.66-.52-3.78-.55-3.91-.26-3.92,3.23,0,2.84.19,5.69-.06,8.51s.81,3.35,3.42,3.34c21.47-.1,42.95-.07,64.42,0C528.84,435,530.17,434.4,531.09,435.63Z" transform="translate(-0.18 -0.15)"/><path class="cls-4" d="M321.89,414.38c-1.29,6.88-.67,13.87-1.19,20.8-1.58,21.2-2.8,42.43-4.13,63.65-1.1,17.39-2.14,34.78-3.26,52.16-.54,8.39-1.18,16.77-1.78,25.15l-.62.13-2.47-.09c-13.54-.7-27.07-1.7-40.62-2-6.94-.15-12.83-2.42-18.81-5.56-23.8-12.48-47.73-24.73-71.61-37.06-3.75-1.93-3.75-1.92-1.64-5.46.3-.51.53-1.08.79-1.62l6.95-5.88c.2-.84-.29-.91-.6-1.11-1.68-1.07-4.62-1.09-5-2.93a47.65,47.65,0,0,1-.75-10.83c0-1.69,2-1.82,3.24-2.32,2.68-1.13,4.38-2.43,2.27-5.47-.78-1.13-.25-2,.52-2.93a51.11,51.11,0,0,1,12.67-12c1.55-1,2.32-1.94.4-3.3a7.66,7.66,0,0,1-3.46-8.07,4.92,4.92,0,0,0-1-3.4c-1.88-3.11-3.72-6.24-5.57-9.37,2.74-8.78,4.54-17.79,6.65-26.72.5-2.11,1.37-3.1,3.46-2.61,4.46,1,6.6-1.57,8.32-5.05a12.88,12.88,0,0,0,1-4.1q1.28-8.7,2.52-17.43c1.11,0,2.23-.07,3.33.06,8.12.94,16.23,2,24.36,2.89,13.54,1.51,27.11,2.88,40.65,4.43,15.15,1.72,30.28,3.57,45.42,5.36l0,0Z" transform="translate(-0.18 -0.15)"/><path class="cls-4" d="M904.65,555.39A31.25,31.25,0,0,1,898.52,532c1.23-9.51-1.27-17.91-6.58-26-7.25-11-9.81-24.07-14.59-36.17-2.75-7-5-14.12-7.56-21.14-.71-1.93-.51-2.61,1.68-2.92,7.7-1.11,15.38-2.4,23-3.68,1.38-.22,2.84-.18,4.09-1,2.28-.44,4.58-.76,6.81-1.32C913,438,921,437.45,928.12,434a1,1,0,0,1,1.5.53c-1.64,3-3.25,6.06-4.93,9-.55,1-1,1.74.44,2.39,15.79,7.5,27.4,21,42.5,29.53,1,.55,1.77,1.4,2.77,1.85,7.33,3.36,10.63,9.76,13,16.92.59,1.83,1.42,3.58,1.89,5.43a24.57,24.57,0,0,0,8,13.23c1,.79,1.9,1.63,1.07,3.33a54.39,54.39,0,0,0-5.14,31.26c-.14,1.22-1,1.32-2,1.3-1.92,0-3.85,0-5.78,0-7.59.1-6.49-.92-5.35,6.44.43,2.79,1.57,5.52,1.18,8.86-3.35-2.24-6.36-4.26-9.39-6.25a4,4,0,0,0-3-1c-11.28,1.75-22.58,3.4-33.87,5.1-6.79,1-13.58,2-20.36,3.14-2,.32-3-.33-3.53-2.22C906.4,560.3,905.48,557.86,904.65,555.39Z" transform="translate(-0.18 -0.15)"/><path class="cls-1" d="M904.65,555.39c.83,2.47,1.75,4.91,2.47,7.42.55,1.89,1.57,2.54,3.53,2.22,6.78-1.11,13.57-2.12,20.36-3.14,11.29-1.7,22.59-3.35,33.87-5.1a4,4,0,0,1,3,1c3,2,6,4,9.39,6.25.39-3.34-.75-6.07-1.18-8.86-1.14-7.36-2.24-6.34,5.35-6.44,1.93,0,3.86,0,5.78,0,1,0,1.83-.08,2-1.3,3.78,22.85,17.2,39.69,34,54.38a4.63,4.63,0,0,1,1.91,4.07,22.58,22.58,0,0,0,3.27,13c4.41,7.26,8.43,14.77,12.34,22.31,3.19,6.15,4.28,13,6.45,19.57,1,3,1.56,6.12,2.85,9,3.81,8.28.72,16.71,1,25.06.23,7.12-3,12-8,16.31a42,42,0,0,0-5.51,5.65c-1.82,2.25-3.66,2.42-5.82.82l13.9-14.88c-4.82.86-9.58,1.6-14.28,2.6a2.39,2.39,0,0,1-3.11-1.44c-2.19-4-4.58-7.87-6.73-11.88-.9-1.67-2-2.79-3.95-2.77-6.69.06-10.76-3.17-12.75-9.53a12.45,12.45,0,0,0-5.82-7.49c-.52-.29-1.18-.67-1.11-1.34.37-3.13-2-4.19-4.07-5.41a12.57,12.57,0,0,1-4.53-4.74c-4.3-7.34-8.52-14.74-13.15-21.86-3.53-5.44-3.66-11.68-5.06-17.62s-2.5-12.05-3.7-18.08a3.07,3.07,0,0,0-.93-1.86c-3.73-3.19-6.87-7-11.75-8.87-8.59-3.31-17-7.11-25.41-10.81a4.33,4.33,0,0,0-4,.32c-7.27,3.33-14.56,6.6-21.83,9.92-1.07.49-1.9.81-3-.14-9.08-7.86-20.08-11-31.66-12.59-6.71-.93-13.46-1.86-20.06.74-3.06-2.78-4.25-6.75-6.36-10.14-.71-1.13.47-1.21,1.26-1.37l34.19-6.76,24.66-4.88C903.3,556.51,904.25,556.42,904.65,555.39Z" transform="translate(-0.18 -0.15)"/><path class="cls-1" d="M929.62,434.48a1,1,0,0,0-1.5-.53c-7.17,3.5-15.11,4-22.7,5.94-2.23.56-4.53.88-6.81,1.32,0-.2.07-.4.09-.6.72-9.75,7.08-15.32,14.42-20.66,9.57-7,18.9-14.27,29.53-19.62a6.55,6.55,0,0,0,3.62-4.53c.87-3.42,2.11-6.76,3-10.18.56-2.23,1.68-3.25,4-3.79q61-14.08,122-28.38c2.14-.5,4.38-.7,6.38-1.73a89.9,89.9,0,0,1,14.16,14.91c2.23,2.89,1.66,7.79,3,11.58,2.44,7.13,1.39,13.09-4.53,18a17.41,17.41,0,0,0-2.82,3.57A27.62,27.62,0,0,1,1076.82,411c-10.28,3.46-16.14,11.73-18.65,22.28-.59,2.45-1.49,4.85-1.83,7.34-.38,2.85-2,3.16-4.28,2.74-2-.36-4-.64-5.94-1.17-2.31-.64-4.37-1.41-5.58,1.78-.64,1.69-1.66.16-2.3-.37-7.83-6.58-15.68-13.14-23.4-19.83a5.57,5.57,0,0,0-5.22-1.45c-6.44,1.27-12.9,2.39-19.33,3.72a5.43,5.43,0,0,1-4.35-.52c-4.86-3.18-10.29-3.26-15.9-3.71a52.8,52.8,0,0,0-32.39,7.6C934.94,431.08,931.45,431.45,929.62,434.48Z" transform="translate(-0.18 -0.15)"/><path class="cls-4" d="M1095.67,208.14c-1.93,2.47-4.94,3.45-7.29,5.35l-21.3-1.91c-4.65-2.86-9.26-5.76-12.95-9.87-1.05-1.16-2.27-.91-3.62-.6q-19,4.26-38.13,8.42c-17.15,3.76-34.32,7.48-51.46,11.32-2.38.53-3.61.56-3.13-2.46a67.51,67.51,0,0,0,.42-7.26c3.86-4.81,7.67-9.67,11.61-14.41,1.08-1.31.3-1.94-.46-2.77a74.64,74.64,0,0,1-6.29-7.79c-1.42-2-.93-3.35,1.3-4.15,6.25-2.27,12.43-4.79,18.78-6.69,5.49-1.64,11.22-2.48,16.8-3.85,2.22-.55,4.82-.27,6.6-1.84,3.87-3.4,7.51-7.07,11.27-10.61.66-.63,1.14-1.34.3-2-2-1.67-1.73-3.93-1.73-6.14,0-6.2,0-6.2-6-7.93-.13,0-.2-.25-.38-.47,6.15-9.61,12.33-19.21,18.43-28.87a5.86,5.86,0,0,1,3.15-2.16l29.32-12.29c2-.16,1.87,1.58,2.28,2.65q11.08,28.78,22.07,57.6,1.52,13.13,3,26.25C1090.7,193.16,1092.8,200.78,1095.67,208.14Z" transform="translate(-0.18 -0.15)"/><path class="cls-3" d="M689.42,618.14c.41-11,.05-22.09,1.46-33,1.61-12.43-2.1-22.25-11-30.46a8.43,8.43,0,0,1-3-7.12c.26-7.06.2-14.14.28-21.21q20-1.65,39.94-3.31c8.95-.75,17.9-1.54,26.84-2.32,1.88,4.15,3.67,8.33,5.64,12.43,3.55,7.4,3.95,14.4-1.87,21-2.13,2.42-3.74,5.29-5.67,7.88a7.16,7.16,0,0,0-1.65,5,48.51,48.51,0,0,1,0,6.38c-.11,1.91.4,2.81,2.52,2.59,4-.4,8.06-.64,12.09-.93q14.37-1,28.73-2.06c1.33-.1,2.33.07,2.71,1.65,1.26,5.31,2.61,10.6,3.92,15.9-3.73,1.45-7.61.46-11.42.66-3.17.17-6.8,4.44-6.23,7.58.18,1,.92.89,1.62,1a17.9,17.9,0,0,0,6.88-.83c2.5-.71,5.13-.78,7.08.41,3.54,2.15,6.55,1.22,9.62-.46,2.21-1.19,2.7-.43,3.42,1.73,1.13,3.34-.32,5.62-2,8.08-2.57,3.69-2.44,4.08,1.28,6.63q3.75,2.57,7.45,5.2c.48.34,1.16.84,1.16,1.27,0,.84-1,.77-1.58,1.07-3.66,1.91-6.77,1.43-9.34-2-.85-1.12-2-2-3-3-1.58-1.79-3.17-2.83-5.81-2-3,1-4.18,2.77-4.14,5.76a9.52,9.52,0,0,1-.64,2.94c-.47,1.46-1.91,1.84-3.1,2.17-1.57.45-1.31-1.29-1.6-2-1.06-2.65-3.5-2-5.41-2.43s-2.86,1-3.63,2.56c-2,4-2,4-6.29,2.54a19.16,19.16,0,0,0-3.18-1c-4.28-.63-7.26-2.6-8.08-7.16a2.39,2.39,0,0,0-1.79-1.86c-5.52-1.66-11-3.38-16.5-5.09-.57-.18-1.2-.61-1.67,0s.2,1.1.32,1.66c.63,3,3.49,3.58,5.6,5.31a28.61,28.61,0,0,1-10.9.27c-6.32-1.25-12.54-3-18.83-4.35-4.08-.88-8,.82-11.93,1.37C694.94,617,692.26,618,689.42,618.14Z" transform="translate(-0.18 -0.15)"/><path class="cls-1" d="M790.37,590.64c-1.31-5.3-2.66-10.59-3.92-15.9-.38-1.58-1.38-1.75-2.71-1.65q-14.36,1-28.73,2.06c-4,.29-8.07.53-12.09.93-2.12.22-2.63-.68-2.52-2.59a48.51,48.51,0,0,0,0-6.38,7.16,7.16,0,0,1,1.65-5c1.93-2.59,3.54-5.46,5.67-7.88,5.82-6.61,5.42-13.61,1.87-21-2-4.1-3.76-8.28-5.63-12.43,0-8.09.12-16.18.07-24.27A10.89,10.89,0,0,1,745.4,491c3.27-6,6.36-12.18,9.57-18.26,2-3.73,4.07-7.41,6.11-11.11q17.76-2,35.5-4c3.11-.34,6.25-.52,9.34-1,2.17-.31,2.56.63,2.55,2.52q-.11,13.81,0,27.64c.07,10.63,1.64,21.15,2.74,31.69a195.05,195.05,0,0,1,.7,28.48c-.46,10.51,3.32,20.05,5.48,30,.73,3.33,2.31,6.49,2,10-8.37.42-16.77.43-24.87,3.07A8,8,0,0,1,790.37,590.64Z" transform="translate(-0.18 -0.15)"/><path class="cls-3" d="M1124.88.15h7.84c6.79,1.05,9.82,5.79,12.41,11.61,3.65,8.19,8.5,15.82,12.17,24a4,4,0,0,0,4.26,2.62c6.93-.06,5.52-1.21,6.93,6,.44,2.27,1.3,2.73,3.1,2.43,3.1-.51,4.92.7,5.9,3.67.82,2.49,2,4.87,3,7.28a2.55,2.55,0,0,1-.35,2.82q-8.3,10.38-16.55,20.81c-.12.16-.28.29-.41.45-3.94,4.85-4.32,4.81-7.77-.66-.46-.73-.55-2-1.65-1.94-1.43.1-1,1.61-1.23,2.45-1.06,3.78-2,7.59-2.82,11.43a14,14,0,0,1-5.76,9c-5.31,3.65-7.86,8.55-8.71,14.76-.93,6.77-2.19,13.49-3.31,20.23-.85-.31-1.14-1.09-1.47-1.83-6.94-15.69-13.94-31.35-20.78-47.09-1.73-4-4-7.73-4.93-12a29.07,29.07,0,0,1,1.78-11.26,42.41,42.41,0,0,0,2-21.12c-.7-4.12-1.76-8.37-1-12.54,1.49-8.5,3.47-16.92,5.11-25.4.36-1.88,1.24-2.68,2.85-1.91C1120.09,6.18,1122.46,3.18,1124.88.15Z" transform="translate(-0.18 -0.15)"/><path class="cls-2" d="M1104.73,76.18c1,4.27,3.2,8,4.93,12,6.84,15.74,13.84,31.4,20.78,47.09.33.74.62,1.52,1.47,1.83.22,1,.43,2,.65,3-.84.32-1.72.56-2.52,1q-13.89,6.75-27.77,13.55a8.32,8.32,0,0,1-4,1.31c-.47-3.8-1.12-7.58-1.39-11.39-.62-8.78-1.5-17.43-4.72-25.77-2.82-7.35-2.54-7.46,3.76-12.44,1.3-1,2.55-2.13,2.63-3.9.27-5.86.17-11.69-2.32-17.19a12.22,12.22,0,0,0,.53-2.94c-.17-2.86,1.35-4.19,3.89-4.81a20.39,20.39,0,0,0,2.26-.83l.72-.46Z" transform="translate(-0.18 -0.15)"/><path class="cls-1" d="M1098.29,155.88a8.32,8.32,0,0,0,4-1.31q13.88-6.78,27.77-13.55c.8-.4,1.68-.64,2.52-1a14.77,14.77,0,0,0,4.84,4.06c1.52.71,1.48,1.57.83,2.87-1.09,2.16-1.93,4.45-3.1,6.56-1,1.78-.43,2.64,1.16,3.58,6.87,4.05,13.68,8.18,20.5,12.31.56.34,1.33.47,1.57,1.34-2.72.26-5.4.84-8,.71a21.7,21.7,0,0,0-12.4,3.23,8.81,8.81,0,0,1-8.83.44,46.13,46.13,0,0,0-5.45-1.75c-1.16-.82-2.12.1-3.09.43-6,2-12,4.09-17.87,6.29-4.8,1.78-9.76,3.15-14.35,5.5q-1.52-13.12-3-26.25c2.93.06,5.87-.06,8.78.23S1098.72,159.23,1098.29,155.88Z" transform="translate(-0.18 -0.15)"/><path class="cls-2" d="M1067.08,211.58l21.3,1.91c-1.4,5.26-2.81,10.52-4.18,15.79-.28,1.05,0,1.81,1.31,1.8.71,0,1.42,0,2.13,0,5.81.12,5.19-.88,4.92,5.25-.4,9-.67,18-2,26.88-.82,5.62-3.41,11-5.23,16.44-.63,1.9-2,1.19-3.26.89-1.7-.42-.88-1.46-.59-2.37.45-1.43.92-2.86,1.64-5.07-4.23,2.22-8.81,1.89-11.79,5.43-1.52-.4-1.41-1.86-1.76-2.93-1.47-4.6-2.81-9.24-4.26-13.84-.35-1.11-.47-2.48-2-2.77,1.53-1.28,3.57-1.9,4.71-3.7,2.32-3.66,4.58-7.38,7.08-10.92,1.27-1.79.71-2.59-.89-3.5-3.51-2-6.94-4.13-10.48-6.09-1.43-.79-1.62-1.63-1.25-3.18C1064.13,225,1065.57,218.26,1067.08,211.58Z" transform="translate(-0.18 -0.15)"/><path class="cls-2" d="M1061.6,331.66c-9.57-.26-19.17-.52-28.22-4.13-7.91-3.16-16.13-5.93-21-13.72-.15-.24-.49-.35-.74-.52,1.46-1.31,3.59-1.69,4.57-3.72,2.54-5.23,5.22-10.39,7.84-15.57a3.48,3.48,0,0,1,2.89.47c5,2.32,10.06,4.72,15.17,6.91,4.9,2.1,9.54,4.79,14.69,6.31a1.94,1.94,0,0,1,.58.12c.55,2.47,2.26,4.26,3.81,6.05a8.75,8.75,0,0,1,2.3,7.17C1063,324.61,1062.86,328.23,1061.6,331.66Z" transform="translate(-0.18 -0.15)"/><path class="cls-4" d="M1057.34,307.81a1.94,1.94,0,0,0-.58-.12l-.69-30.34c0-2.11-.19-4.22-.4-6.33-.26-2.66-.75-5.44.44-8.06,2.66-.87,4.83-2.63,7.23-4,1.53.29,1.65,1.66,2,2.77,1.45,4.6,2.79,9.24,4.26,13.84.35,1.07.24,2.53,1.76,2.93,3.09,1.93,6.15,3.89,9.27,5.76a3.16,3.16,0,0,1,1.69,2.89c.43,7.16,1,14.3,1.54,21.45.12,1.55-.73,2.67-1.33,3.93-1.48,3.14-3.78,6.11-2.12,9.94.14.33.12,1-.07,1.15-4.11,2.4-1.53,6.66-2.77,9.85a12.54,12.54,0,0,0-.3,2.81c-2.12-2.44-3.73-4.4-3.69-7.6a84,84,0,0,0-1-15.1,12.81,12.81,0,0,0-.9-3.19c-2.59-5.61-5.15-6.61-10.73-4.25C1059.69,306.69,1058.52,307.27,1057.34,307.81Z" transform="translate(-0.18 -0.15)"/><path class="cls-3" d="M1088.32,185.63c4.59-2.35,9.55-3.72,14.35-5.5,5.92-2.2,11.9-4.24,17.87-6.29,1-.33,1.93-1.25,3.09-.43-1,.87-.4,1.81-.17,2.78q1.59,6.42,3.08,12.87c.36,1.55.35,2.9-1.48,3.75-9.76,4.56-19.66,8.84-28.52,15.1a2.37,2.37,0,0,1-.87.23C1092.8,200.78,1090.7,193.16,1088.32,185.63Z" transform="translate(-0.18 -0.15)"/><path class="cls-5" d="M1090.14,227.51c0-5.44,1.29-9.67,6.37-12.3a54.44,54.44,0,0,0,10.24-7.07c6-5.19,13.34-6.22,21.5-7.21C1119.6,216.15,1105.45,222.4,1090.14,227.51Z" transform="translate(-0.18 -0.15)"/><path class="cls-3" d="M308.44,576.18l2.47.09A1.71,1.71,0,0,1,308.44,576.18Z" transform="translate(-0.18 -0.15)"/><path class="cls-6" d="M531.09,435.63c-.92-1.23-2.25-.68-3.38-.68-21.47,0-43-.07-64.42,0-2.61,0-3.66-.57-3.42-3.34s.05-5.67.06-8.51c0-3.49.14-3.78,3.92-3.23,5.56.83,11.11.32,16.66.52,3.38.41,6.74.94,10.13,1.2,9.29.73,18.58.37,27.89.17,16.69-.35,33.36-1.17,50-2.18,28.66-1.72,57.3-3.81,85.94-5.75.23,1.29.49,2.58.67,3.88.81,5.79,1.59,11.58,2.38,17.37.15,1.3.29,2.61.44,3.91,1.59,13.51,3.76,26.94,5.88,40.37,0,9.33-.08,18.66,0,28,0,2.09-.33,2.81-2.47,1.66-3.38-1.84-6.94-3.35-10.29-5.24-2.37-1.35-4.76-1.21-7.32-1.18-9.29.14-17.89,2.9-26.23,6.66-2.13,1-3.28.45-4.42-1.48s-2-5-4-5.46-4.1,1.9-5.85,3.35c-2.54,2.1-5.32,1.71-8.09,1.42a32.38,32.38,0,0,0-9.68.08,5.1,5.1,0,0,1-5.44-1.79c-3-3.83-6.94-5-11.76-4.6-5.36.49-10.71.29-15.65-2.48-1.26-.71-2.29-1.24-2-2.88s-.58-2.2-2.11-2c-.51.05-1-.08-1.52,0-5.85,1.14-10.28-1.64-14.59-5.05-1.41-1.12-1.28-2.38-1.28-3.77Q531.08,460.12,531.09,435.63Z" transform="translate(-0.18 -0.15)"/><path class="cls-4" d="M663.85,479.39C661.73,466,659.56,452.53,658,439c-.15-1.3-.29-2.61-.44-3.91-.43-3,1.19-3.7,3.88-3.85,3.91-.22,7.8-.87,11.71-1.34l33.3-4.07L734,422.41c8.3-1,16.59-2.11,24.89-3.14,1.72-.21,2.59.1,1.53,2.13-1.43,2.78-2.52,5.73-3.94,8.52-1,2-.87,2.81,1.65,2.77,3.33-.05,6.65.27,10,.37,1.1,0,2,.13,2.19,1.48q-4.17,12-8.34,23.94c-.36,1-.59,2.12-.89,3.18-2,3.7-4.13,7.38-6.11,11.11-3.21,6.08-6.3,12.22-9.57,18.26a10.89,10.89,0,0,0-1.37,5.46c.05,8.09,0,16.18-.07,24.27-9,.78-17.9,1.57-26.85,2.32q-20,1.68-39.94,3.31c0-4.64-.12-9.29-.09-13.93,0-2-.57-2.84-2.69-2.31-3,.76-6-.38-9-.11-1.63.14-.94-1.5-1-2.32-.06-8.38,0-16.77-.06-25.15C664.35,481.51,664.74,480.34,663.85,479.39Z" transform="translate(-0.18 -0.15)"/><path class="cls-3" d="M208.1,401q-1.26,8.71-2.52,17.43a12.88,12.88,0,0,1-1,4.1c-1.72,3.48-3.86,6.08-8.32,5.05-2.09-.49-3,.5-3.46,2.61-2.11,8.93-3.91,17.94-6.65,26.72-3.17-4.15-6.38-8.28-9.52-12.47q-34.39-45.84-68.76-91.69C99.93,342.11,92,331.51,84,320.94A5.35,5.35,0,0,1,83,316.12q9.92-39.83,19.79-79.65c.29-1.2.55-2.15,2-2.25,12.82,2.35,25.63,4.76,38.46,7,7.66,1.34,15.23,3.17,23,3.91,1.09.23,2.17.48,3.27.69,19.53,3.66,39.15,6.94,58.61,11-.65,4.9-1.26,9.81-1.94,14.71q-3.54,25.38-7.1,50.76c-2.12,15.11-4.31,30.2-6.41,45.31C211,378.73,209.59,389.85,208.1,401Z" transform="translate(-0.18 -0.15)"/><path class="cls-5" d="M166.16,245.14c-7.76-.74-15.33-2.57-23-3.91-12.83-2.25-25.64-4.66-38.46-7L59.25,220.64,12.87,206.82c-1.55-3.76-1.34-7.27,1.55-10.36a6,6,0,0,0,1.41-4.17c.15-4.15.41-8.28.7-12.42a5.19,5.19,0,0,1,.7-2.59c9.44-12.75,14.86-27.48,20.73-42S49.2,105.9,54.18,91a6.46,6.46,0,0,1,.56-1c3.14.75,6.24,1.82,9.42,2.18a13.68,13.68,0,0,1,11,7.35,8.32,8.32,0,0,1,1.51,4.75c-.13,2.42.1,4.86-.07,7.28-.15,2.16.36,3.1,2.78,3,8.62-.48,17.18-.19,25.27,3.4a7.86,7.86,0,0,0,1.49.29,142.41,142.41,0,0,0,39.74,3.5A75.08,75.08,0,0,1,171.23,125c5.37,1.55,10.68,3.84,16.55,3.09a2.69,2.69,0,0,0,2.56-1.62,10.32,10.32,0,0,0,1.37,5.18c1.65,3,3,6.2,4.82,9.09a3.77,3.77,0,0,1,0,4.68c-2.21,3.28-3.84,6.88-5.81,10.29-2.59,4.5-4.78,9.29-9.42,12.36-4.89,3.23-5.78,9.51-2.28,14.27a7.64,7.64,0,0,1,1.34,7.11c-1.88,6.37-3.55,12.75-6.26,18.92-3.16,7.18-4.08,15.14-5.5,22.86C167.74,235.83,166.07,240.33,166.16,245.14Z" transform="translate(-0.18 -0.15)"/><path class="cls-1" d="M770.31,434.54c-.15-1.35-1.09-1.44-2.19-1.48-3.33-.1-6.65-.42-10-.37-2.52,0-2.69-.74-1.65-2.77,1.42-2.79,2.51-5.74,3.94-8.52,1.06-2,.19-2.34-1.53-2.13-8.3,1-16.59,2.1-24.89,3.14l-27.59,3.44-33.3,4.07c-3.91.47-7.8,1.12-11.71,1.34-2.69.15-4.31.83-3.88,3.85-.79-5.79-1.57-11.58-2.38-17.37-.18-1.3-.44-2.59-.67-3.88.59-2.75-.54-5.39-.5-8.11.09-6.36-1.1-12.61-1.39-19-.48-10.62-2-21.19-2.77-31.8-.18-2.37-1-3-3.07-2.77-1.75.19-3.19-.19-3.71-2.23-.76-3-1.51-6-2.51-9-.78-2.29-.64-4.08,1.4-5.62,1.5-1.13,1-2-.58-2.49-2.1-.69-4.22-1.35-6.34-2-1.36-1.48-2.85-2.86-4-4.46-3.15-4.2-7.6-7.25-10.37-11.78,8.82-.91,17.65-1.81,26.47-2.75q30.11-3.19,60.2-6.43a4.64,4.64,0,0,1,4.71,1.88,69.08,69.08,0,0,0,5.2,5.5c.84,4.45,1.85,8.88,2.48,13.36s1.64,8.63,6.1,11.3a24.82,24.82,0,0,1,9.16,9.07c1.45,2.62,3.43,3.75,6.44,3.33,4-.55,7.47,1.34,11,2.9,1.78.8,2.49,1.67.82,3.59a78,78,0,0,0-5.18,7.46,1.75,1.75,0,0,0,.2,2.63c4.24,4.06,8.34,8.25,13.12,11.7,3.63,2.61,7.28,5.16,7.9,10.18.14,1.13,1.05,2.17,1.68,3.21a101.78,101.78,0,0,0,8.45,11.07l-4.19,11.27C773.5,420.78,772.43,427.79,770.31,434.54Z" transform="translate(-0.18 -0.15)"/><path class="cls-5" d="M775.12,413.91l4.19-11.27c4.92-5.29,11.28-6.17,18.78-5.13l-6-8.8a25.65,25.65,0,0,0,10.71-8.53c3.46-4.88,7.92-7.41,13.51-7.06,5,.31,8.5-1.66,11.75-4.9,1-1,2-2,3-3,6.38-6.15,4.31-6.19,12.88-3.22,1.52.52,2.29.21,3.2-1.13,2-2.91,4.4-5.53,6.35-8.46s5.24-5.5,4.23-9.86c-.87-3.78,1.12-5.74,4.33-7.53s7.92-3,6.77-8.47a8.06,8.06,0,0,1,3.18.89c4.25,1.62,8.12,4.66,12.59,5.08,6.59.63,13.35.79,19.71-2,3.17-1.38,5.86-1.4,8.64,1.5,2,2,4,4.65,7.31,4.87.09,2.35,1.81,3.72,3.19,5.3,5.17,5.92,11.11,11.14,15.86,17.44q-14.91,14.06-29.8,28.11c-.59.55-1.61,1.23-1.56,1.77.35,3.59-2.17,3.35-4.47,3.71q-49.11,7.84-98.2,15.76C795.26,410.61,785.19,412.27,775.12,413.91Z" transform="translate(-0.18 -0.15)"/><path class="cls-4" d="M939.36,359.64c-4.75-6.3-10.69-11.52-15.86-17.44-1.38-1.58-3.1-2.95-3.19-5.3a8,8,0,0,1,1.33-1.22c4.51-2.54,6.48-6.2,5.62-11.45-.36-2.16.07-4.45-.09-6.66s.44-3.22,3-3.14c5,.15,5,0,5-4.87a9.52,9.52,0,0,0,0-1.51c-.36-2.14.69-3.31,2.51-4.28,2.94-1.56,5.69-3.49,8.65-5a6.1,6.1,0,0,0,3.36-4.6c1.66-7.74,4.1-15.33,4.74-23.28,1.1,4.81,2.3,9.59,3.28,14.42.45,2.22,1.24,2.62,3.47,2,7.26-2,14.61-3.76,21.92-5.61,1.21,0,2.14,0,2.61,1.72.82,3,1.7,6,2.32,9.05,1,5,4,7,9,6.18,7.46-1.22,14.82-2.89,22.2-4.47,1.51-.32,3.17-1.64,4.81-.16-2.62,5.18-5.3,10.34-7.84,15.57-1,2-3.11,2.41-4.57,3.72-9.67,5.68-19.31,11.39-29,17-1.28.74-1.47,1.87-1.77,3-1.78,6.52-3.54,13.05-5.18,19.6a4.82,4.82,0,0,1-2.86,3.55c-5.76,2.71-11.48,5.52-17.17,8.37a3.7,3.7,0,0,1-3.38.11C948,363.11,943.65,361.39,939.36,359.64Z" transform="translate(-0.18 -0.15)"/><path class="cls-4" d="M480.49,419.86q-23.19-.87-46.39-1.75-37.31-1.42-74.6-2.88-18.5-.74-37-1.52l-.68,0,0,0c.58-6.13,1.21-12.25,1.74-18.39q2.19-25.2,4.3-50.4c1.07-12.88,2-25.78,3.25-38.65.28-2.87-.19-5.89,1.08-8.65l.26,0,.26.06c.77.75,1.69.51,2.59.38l50.53,3.4q26,1.75,52.06,3.48c2.36,1.36,4.74,0,7.11,0,11.65.1,23.3.14,34.95,0,2.91,0,3.79.75,3.74,3.71-.13,9.62,0,19.24.1,28.85-.06,1.92-.17,3.84-.17,5.75,0,24.37-.05,48.73.06,73.09C483.73,418.85,483.15,420.1,480.49,419.86Z" transform="translate(-0.18 -0.15)"/><path class="cls-5" d="M480.49,419.86c2.66.24,3.24-1,3.23-3.56-.11-24.36-.07-48.72-.06-73.09,0-1.91.11-3.83.17-5.75,6,.25,11.92-.09,17.89-.25,15.47-.4,30.92-1.22,46.38-1.89,16.76-.72,33.53-1.44,50.28-2.47,12.2-.75,24.42-1.32,36.63-2,2.12.67,4.24,1.33,6.34,2,1.53.5,2.08,1.36.58,2.49-2,1.54-2.18,3.33-1.4,5.62,1,2.94,1.75,6,2.51,9,.52,2,2,2.42,3.71,2.23,2.12-.22,2.89.4,3.07,2.77.8,10.61,2.29,21.18,2.77,31.8.29,6.35,1.48,12.6,1.39,19,0,2.72,1.09,5.36.5,8.11-28.64,1.94-57.28,4-85.94,5.75-16.65,1-33.32,1.83-50,2.18-9.31.2-18.6.56-27.89-.17-3.39-.26-6.75-.79-10.13-1.2A.65.65,0,0,0,480.49,419.86Z" transform="translate(-0.18 -0.15)"/><path class="cls-1" d="M321.83,413.68l.68,0-.62.67Z" transform="translate(-0.18 -0.15)"/><path class="cls-1" d="M332.23,297.61c-1.27,2.76-.8,5.78-1.08,8.65-1.27,12.87-2.18,25.77-3.25,38.65q-2.11,25.2-4.3,50.4c-.53,6.14-1.16,12.26-1.74,18.39-15.14-1.79-30.27-3.64-45.42-5.36-13.54-1.55-27.11-2.92-40.65-4.43-8.13-.91-16.24-2-24.36-2.89-1.1-.13-2.22,0-3.33-.06,1.49-11.11,2.94-22.23,4.49-33.34,2.1-15.11,4.29-30.2,6.41-45.31q3.57-25.37,7.1-50.76c.68-4.9,1.29-9.81,1.94-14.71,4.4.57,8.8,1.12,13.2,1.72,11.1,1.52,22.17,3.2,33.28,4.54,6,.72,11.91,2.26,18,2-1.1,8.61-2.12,17.24-3.34,25.83-.35,2.48-.07,3.49,2.83,3.67C305.43,295.48,318.83,296.59,332.23,297.61Z" transform="translate(-0.18 -0.15)"/><path class="cls-3" d="M983.09,281.68c-7.31,1.85-14.66,3.58-21.92,5.61-2.23.63-3,.23-3.47-2-1-4.83-2.18-9.61-3.28-14.42A76.72,76.72,0,0,0,952.3,260c-3.31-10.75-6.32-21.59-9.45-32.39a64.89,64.89,0,0,0,15.36-16.51,67.51,67.51,0,0,1-.42,7.26c-.48,3,.75,3,3.13,2.46,17.14-3.84,34.31-7.56,51.46-11.32q19.06-4.18,38.13-8.42c1.35-.31,2.57-.56,3.62.6,3.69,4.11,8.3,7,12.95,9.87-1.51,6.68-2.95,13.37-4.57,20-.37,1.55-.18,2.39,1.25,3.18,3.54,2,7,4.1,10.48,6.09,1.6.91,2.16,1.71.89,3.5-2.5,3.54-4.76,7.26-7.08,10.92-1.14,1.8-3.18,2.42-4.71,3.7-2.4,1.33-4.57,3.09-7.23,4a6.67,6.67,0,0,0-1.19.09q-22.59,5.83-45.19,11.69Q996.41,278.19,983.09,281.68Z" transform="translate(-0.18 -0.15)"/><path class="cls-3" d="M1060.93,99.13c10.78-3.62,20.92-8.82,31.6-12.69,1.23-.44,2.47-.83,3.71-1.25,2.49,5.5,2.59,11.33,2.32,17.19-.08,1.77-1.33,2.88-2.63,3.9-6.3,5-6.58,5.09-3.76,12.44,3.22,8.34,4.1,17,4.72,25.77.27,3.81.92,7.59,1.39,11.39.44,3.35-1.27,4-4.22,3.73s-5.85-.17-8.78-.23q-11-28.81-22.07-57.6C1062.8,100.71,1062.89,99,1060.93,99.13Z" transform="translate(-0.18 -0.15)"/><path class="cls-3" d="M1102.92,76.61l.72-.46Z" transform="translate(-0.18 -0.15)"/><path class="cls-5" d="M983.09,281.68q13.32-3.46,26.64-6.94,22.59-5.87,45.19-11.69a6.67,6.67,0,0,1,1.19-.09c-1.19,2.62-.7,5.4-.44,8.06.21,2.11.35,4.22.4,6.33l.69,30.34c-5.15-1.52-9.79-4.21-14.69-6.31-5.11-2.19-10.12-4.59-15.17-6.91A3.48,3.48,0,0,0,1024,294c-1.64-1.48-3.3-.16-4.81.16-7.38,1.58-14.74,3.25-22.2,4.47-5,.81-8-1.22-9-6.18-.62-3.06-1.5-6-2.32-9.05C985.23,281.7,984.3,281.72,983.09,281.68Z" transform="translate(-0.18 -0.15)"/><path class="cls-1" d="M224.63,48c5.78.45,11.28,2.26,16.91,3.43,25.23,5.23,50.59,9.71,76.16,13,37,4.71,74.15,8.31,111.44,10,7,.32,13.95.73,20.92,1.09.05,1,.18,2,.14,3q-.63,14.68-1.32,29.37c-.4,8.27-.89,16.54-1.29,24.81q-.84,16.93-1.61,33.88c0,.22-.05.44-.07.67L444.65,190a9.92,9.92,0,0,0-3.86-.64c-5.05-.29-10.1-.57-15.14-.9q-31.17-2.05-62.34-4.14c-10.08-.68-20.16-1.45-30.24-2.15-9.57-.67-19.16-1.27-28.73-1.95-1.44-.1-2,.31-2,1.81.06,2.42-.07,4.85-.12,7.27a77.45,77.45,0,0,0-18.38.45,10.68,10.68,0,0,1-6.22-.91,9,9,0,0,0-6.47-.68c-3.34.73-6.66.27-10,.49-1.66.1-2.1-.72-2-2.2s-.15-3.06.05-4.56a7.11,7.11,0,0,0-2.48-6.77c-2.78-2.32-3.18-5.45-3.63-8.67s-1.11-6.37-1.55-9.56-3-5.16-5.25-6.72c-1.66-1.13-3.22,1.46-4.9,2.23-.55.26-1,.65-1.59.88s-1.42,1.09-2.19.34c-.58-.56-.13-1.32-.08-2,.48-6.17,3.46-11.43,6.6-16.43,2.38-3.8,2.18-7.64,2.21-11.66,0-1.28-.54-2-1.8-1.78-3.44.64-5.19-1.11-6.38-4.06-.56-1.39-1.64-2.55-2.34-3.89-2.88-5.43-7-10.22-8.73-16.24-1.63-5.52-3.27-11-4.68-16.63-.56-2.18-1.55-4.22-1.17-6.75C222.57,65.48,223.53,56.75,224.63,48Z" transform="translate(-0.18 -0.15)"/><path class="cls-4" d="M224.63,48c-1.1,8.71-2.06,17.44-3.37,26.11-.38,2.53.61,4.57,1.17,6.75,1.41,5.58,3,11.11,4.68,16.63,1.76,6,5.85,10.81,8.73,16.24.7,1.34,1.78,2.5,2.34,3.89,1.19,3,2.94,4.7,6.38,4.06,1.26-.23,1.81.5,1.8,1.78,0,4,.17,7.86-2.21,11.66-3.14,5-6.12,10.26-6.6,16.43-.05.7-.5,1.46.08,2,.77.75,1.49,0,2.19-.34s1-.62,1.59-.88c1.68-.77,3.24-3.36,4.9-2.23,2.28,1.56,4.79,3.44,5.25,6.72s1.09,6.36,1.55,9.56.85,6.35,3.63,8.67a7.11,7.11,0,0,1,2.48,6.77c-.2,1.5,0,3-.05,4.56s.38,2.3,2,2.2c3.32-.22,6.64.24,10-.49a9,9,0,0,1,6.47.68,10.68,10.68,0,0,0,6.22.91,77.45,77.45,0,0,1,18.38-.45,27.56,27.56,0,0,1-.07,3c-1.32,10.12-2.69,20.24-4,30.37q-2.82,21.23-5.62,42.46c-6.1.22-12-1.32-18-2-11.11-1.34-22.18-3-33.28-4.54-4.4-.6-8.8-1.15-13.2-1.72-19.46-4.07-39.08-7.35-58.61-11-1.1-.21-2.18-.46-3.27-.69-.09-4.81,1.58-9.31,2.44-13.95,1.42-7.72,2.34-15.68,5.5-22.86,2.71-6.17,4.38-12.55,6.26-18.92A7.64,7.64,0,0,0,179,182.3c-3.5-4.76-2.61-11,2.28-14.27,4.64-3.07,6.83-7.86,9.42-12.36,2-3.41,3.6-7,5.81-10.29a3.77,3.77,0,0,0,0-4.68c-1.82-2.89-3.17-6.07-4.82-9.09a10.32,10.32,0,0,1-1.37-5.18c1.9-12.78,3-25.7,6.06-38.28,3.65-15,7.41-29.94,11.12-44.91C213.21,44.91,219.11,45.78,224.63,48Z" transform="translate(-0.18 -0.15)"/><path class="cls-5" d="M582.28,76.71c10.73-.22,21.45-.49,32.18-.63,2,0,3.31-.32,3.12-2.78a24.88,24.88,0,0,1,.47-3.59c.23-3.28,1.39-4.51,4.66-5.13,1.45-.27,1.71.7,2.15,1.59,2.36,4.81,4.77,9.6,7,14.46A5.23,5.23,0,0,0,635.49,84a6.87,6.87,0,0,1,1.41.58c4.9,2.43,10,3.86,15.47,2.5,2.65-.65,5,.18,7.17,1.54.86.53,1.87.83,2.68,1.42,3.87,2.83,7.81,3.22,12.42,1.53,3.25-1.2,6.8-.09,10,1.22A50.87,50.87,0,0,1,690,95.57c.84.46,1.68.89,2.5.11C697,91.46,702,93.05,707,94.11a14.74,14.74,0,0,0,5.73.09C719,93,719,93,724.82,96.73c-9.62,5.09-17,12.76-24.4,20.26a212.71,212.71,0,0,0-15.63,17.37c-.72.9-1.85,1.68-1.56,3.12-.24,3.06.7,6,1,9,.25,2.75,1.13,6-1.51,7.9-3.6,2.55-6.51,5.75-9.61,8.78-3.41,3.33-3.35,3.34.77,5.6,1.46.8,3.45,1.48,3.06,3.62-.84,4.53-.16,9.08-.39,13.6a6.19,6.19,0,0,0,2.34,5.32c8.28,7.07,16.48,14.23,24.82,21.23,3.83,3.22,7.89,6.16,6.22,12.13-.61,0-1.22,0-1.82,0q-19.94,1.76-39.88,3.53c-10,.89-19.92,1.88-29.89,2.73-11.59,1-23.19,1.86-34.78,2.79a29.31,29.31,0,0,0-.14-3.64c-2.18-13.9-4.34-27.81-6.66-41.68-.61-3.62-.74-7.33-3-10.62-4.18-6-5-4,.66-9.72.1-.1,0-.36.08-.81-1.1,0-2.19.07-3.26,0-3-.22-6,.55-9-.47,3.63-.05,7.27-.21,10.9-.13,1.83.05,2.52-.45,2.44-2.36-.15-3.23-.18-6.48,0-9.71a26.19,26.19,0,0,0-2.22-12.37c-1.46-3.31-3.06-6.72-3.63-10.25-2.77-17.16-7.22-34-10.16-51.11C579,78,579.34,76.77,582.28,76.71Z" transform="translate(-0.18 -0.15)"/><path class="cls-3" d="M582.28,76.71c-2.94.06-3.26,1.33-2.78,4.16,2.94,17.13,7.39,33.95,10.16,51.11.57,3.53,2.17,6.94,3.63,10.25a26.19,26.19,0,0,1,2.22,12.37c-.17,3.23-.14,6.48,0,9.71.08,1.91-.61,2.41-2.44,2.36-3.63-.08-7.27.08-10.9.13H571.89c-1.1-.06-2.21-.16-3.32-.16q-27.44,0-54.87,0c-3.13,0-6.26.11-9.38.16H474.56L446,166.6q.79-16.93,1.61-33.88c.4-8.27.89-16.54,1.29-24.81q.71-14.68,1.32-29.37c0-1-.09-2-.14-3a11.89,11.89,0,0,0,2.65.5c7.8-.25,15.56.42,23.34.66,32.71,1,65.42.45,98.12.66C576.93,77.37,579.53,76.21,582.28,76.71Z" transform="translate(-0.18 -0.15)"/><path class="cls-3" d="M207.52,43.24c-3.71,15-7.47,29.92-11.12,44.91-3.06,12.58-4.16,25.5-6.06,38.28a2.69,2.69,0,0,1-2.56,1.62c-5.87.75-11.18-1.54-16.55-3.09a75.08,75.08,0,0,0-25.35-3.32,142.41,142.41,0,0,1-39.74-3.5,7.86,7.86,0,0,1-1.49-.29c-8.09-3.59-16.65-3.88-25.27-3.4-2.42.14-2.93-.8-2.78-3,.17-2.42-.06-4.86.07-7.28a8.32,8.32,0,0,0-1.51-4.75,13.68,13.68,0,0,0-11-7.35c-3.18-.36-6.28-1.43-9.42-2.18Q56.43,80,58.12,70a12.53,12.53,0,0,0,.3-2.09c.06-10.11-.21-20.24.64-30.33.34-4.07-.78-8-.61-12.09a18.74,18.74,0,0,1,.33-3c.34-1.66,1-2.33,2.65-1,7.05,5.94,15,10.45,22.91,15.16,3.51,2.1,7.29,1.22,10.83,2.25a3.85,3.85,0,0,0,.9,0c2.16.07,5.2,1.88,6.27,0a12.35,12.35,0,0,0,.81-9.12c-1-3.79-2.18-7.54-3.14-11.34-.6-2.33.29-3.2,2.48-2.47C112,19.2,121.68,21.46,131.32,24c22,5.76,44.12,11.36,66.19,17C200.82,41.82,204.18,42.49,207.52,43.24Z" transform="translate(-0.18 -0.15)"/><path class="cls-4" d="M709.89,224.65c1.67-6-2.39-8.91-6.22-12.13-8.34-7-16.54-14.16-24.82-21.23a6.19,6.19,0,0,1-2.34-5.32c.23-4.52-.45-9.07.39-13.6.39-2.14-1.6-2.82-3.06-3.62-4.12-2.26-4.18-2.27-.77-5.6,3.1-3,6-6.23,9.61-8.78,2.64-1.87,1.76-5.15,1.51-7.9-.26-3-1.2-5.93-1-9,6-1.31,11.53-4.19,17.29-6.31a59.21,59.21,0,0,0,5.89-2.42c1.71-.84,2.2-.14,2.29,1.41,0,.3,0,.61,0,.91.16,2.89,1,5,4.4,5.61a28.29,28.29,0,0,1,7.66,2.69c6.72,3.4,13.93,4.76,21.3,5.48,7.58.75,14.7,3.38,22,5.06a12,12,0,0,0,3.22.76c3.8-.23,5,2.23,6,5.2a59.74,59.74,0,0,1,2.54,12.76,8.62,8.62,0,0,1-.84,3.8c-.91,2.57-1.92,5.12-2.7,7.73-.58,2,2.62,5.87,4.64,5.83,1.24,0,1.22-1.26,1.5-2a73.85,73.85,0,0,1,12.22-20.8c.32-.37.6-.78,1.28-1.68.13,2.38-.84,3.9-1.26,5.52a36.8,36.8,0,0,1-1.72,4.85,73.4,73.4,0,0,0-5.36,37.65c1.23,11,2.13,22,2.28,33L756.75,248q-14,2.58-28,5.19c-3.19-3.56-6.57-6.88-11.21-8.55-1.36-.5-1.89-1.59-2.3-3C713.51,236,712.22,230.14,709.89,224.65Z" transform="translate(-0.18 -0.15)"/><path class="cls-2" d="M728.77,253.14q14-2.59,28-5.19l29.2-5.39c.89,9.25,7.89,14.54,13.48,20.74a1.09,1.09,0,0,0-.57,1.26c.88,8.75,1.91,17.49,2.62,26.26.87,10.75,3.29,21.43,1.45,32.31a63.64,63.64,0,0,0-.54,12.11c.06,2.24.35,4.37,2,6.18a4.7,4.7,0,0,1,.89,4.61c-1.57,5-1.26,10.15-1.6,15.25-.49,7.43-1.93,14.37-8.06,19.48-1.3,1.08-2.15,2.69-3.38,3.88-1.48,1.41-1.57,2.68-.1,4.07l6,8.8c-7.5-1-13.86-.16-18.78,5.13a101.78,101.78,0,0,1-8.45-11.07c-.63-1-1.54-2.08-1.68-3.21-.62-5-4.27-7.57-7.9-10.18-4.78-3.45-8.88-7.64-13.12-11.7a1.75,1.75,0,0,1-.2-2.63,78,78,0,0,1,5.18-7.46c1.67-1.92,1-2.79-.82-3.59-3.5-1.56-7-3.45-11-2.9-3,.42-5-.71-6.44-3.33a24.82,24.82,0,0,0-9.16-9.07c-4.46-2.67-5.46-6.72-6.1-11.3s-1.64-8.91-2.48-13.36c.28-.53.59-1,.85-1.57,4-8.26,7.27-16.66,5.9-26.12-.23-1.6.6-2.36,2-2.95,2.87-1.25,5.68-2.61,8.53-3.93,1-.47,2-1,2.21-2.29,1-6.27,1.86-12.47-3.28-17.62C731.71,256.73,730.29,254.89,728.77,253.14Z" transform="translate(-0.18 -0.15)"/><path class="cls-3" d="M809.67,259.72c4.7-6.1,6.88-13.32,9.23-20.48a10.19,10.19,0,0,0,.15-5.94c-1.41-5.37-2.55-10.8-5.65-15.57a11,11,0,0,1-1.21-4,90.46,90.46,0,0,0-4.39-16,8.85,8.85,0,0,1-.15-5.64,36.14,36.14,0,0,0,1.47-11.66,13.84,13.84,0,0,1,2.68-8.82,71.75,71.75,0,0,0,6-10.06c1.32,1.39,1.17,3.11,1.64,4.53.66,2,2,2.11,3.59,1.76,1.81-.39,2-1.49,1.52-3.2-.71-2.41,0-5-.76-7.5-.39-1.16.58-1.82,1.71-2,1.89-.36,2.83-1.4,2.45-3.39-.79-4.09,1.61-6.17,4.44-8.71,3.45-3.09,6-2.33,9.44-.43,6.73,3.72,13.63,7.14,20.54,10.51a3.32,3.32,0,0,1,2.24,2.82,9.39,9.39,0,0,0,1.06,2.82c3,6.09,2.12,11.93-.49,18a111.65,111.65,0,0,0-4.62,14.39c-.54,1.93-1.45,4.57.76,5.79s3.91-.79,5.43-2.32a21.39,21.39,0,0,0,3.19-4c2.45-4.09,6.85-5.05,10.94-6.46.78-.26,1.12.17,1.42.74,4.32,8.33,9.83,16,13.16,24.87a19.82,19.82,0,0,1,1.23,8c-.05.93,0,1.91-1,2.36s-1.64-.42-2.34-1-1.23-2-2.38-1.46c-.94.43-1.14,1.67-1,2.7,1.05,6.7-2.19,12.37-4.34,18.3-1.27,3.52-2.65,7-2.39,10.85-8.71,1.55-17.46,2.9-26.27,3.72-7.69,1.12-15.36,2.27-23,3.34C825.89,257.63,817.78,258.65,809.67,259.72Z" transform="translate(-0.18 -0.15)"/><path class="cls-2" d="M857,253.17c8.81-.82,17.56-2.17,26.27-3.72,4.42,1.37,8.83,2.79,13.27,4.07a7.18,7.18,0,0,0,5.57-.72c6.47-3.57,13.43-6.05,20.19-9,2.81-1.21,5.53-2.68,7.33-5.2,3.44-4.85,8.7-7.42,13.18-11C946,238.44,949,249.28,952.3,260a76.72,76.72,0,0,1,2.12,10.85c-.64,7.95-3.08,15.54-4.74,23.28a6.1,6.1,0,0,1-3.36,4.6c-3,1.52-5.71,3.45-8.65,5-1.82,1-2.87,2.14-2.51,4.28a9.52,9.52,0,0,1,0,1.51c0,4.87,0,5-5,4.87-2.54-.08-3.15.85-3,3.14s-.27,4.5.09,6.66c.86,5.25-1.11,8.91-5.62,11.45a8,8,0,0,0-1.33,1.22C917,336.68,915,334.06,913,332c-2.78-2.9-5.47-2.88-8.64-1.5-6.36,2.77-13.12,2.61-19.71,2-4.47-.42-8.34-3.46-12.59-5.08a8.06,8.06,0,0,0-3.18-.89,3.58,3.58,0,0,1-.85-2.2c-3-20.81-6-41.62-9.09-62.42C858.5,259,858.89,255.82,857,253.17Z" transform="translate(-0.18 -0.15)"/><path class="cls-4" d="M857,253.17c1.85,2.65,1.46,5.82,1.9,8.75,3.11,20.8,6.09,41.61,9.09,62.42a3.58,3.58,0,0,0,.85,2.2c1.15,5.5-3.54,6.68-6.77,8.47s-5.2,3.75-4.33,7.53c1,4.36-2.22,6.87-4.23,9.86s-4.36,5.55-6.35,8.46c-.91,1.34-1.68,1.65-3.2,1.13-8.57-3-6.5-2.93-12.88,3.22-1,1-2,2-3,3-3.25,3.24-6.75,5.21-11.75,4.9-5.59-.35-10.05,2.18-13.51,7.06a25.65,25.65,0,0,1-10.71,8.53c-1.47-1.39-1.38-2.66.1-4.07,1.23-1.19,2.08-2.8,3.38-3.88,6.13-5.11,7.57-12.05,8.06-19.48.34-5.1,0-10.26,1.6-15.25a4.7,4.7,0,0,0-.89-4.61c-1.65-1.81-1.94-3.94-2-6.18a63.64,63.64,0,0,1,.54-12.11c1.84-10.88-.58-21.56-1.45-32.31-.71-8.77-1.74-17.51-2.62-26.26a1.09,1.09,0,0,1,.57-1.26c1.7,1.8,3.38,1.14,5.09,0s3-3,5.15-3.58c8.11-1.07,16.22-2.09,24.32-3.21C841.68,255.44,849.35,254.29,857,253.17Z" transform="translate(-0.18 -0.15)"/><path class="cls-2" d="M635,330.88c-12.21.65-24.43,1.22-36.63,2-16.75,1-33.52,1.75-50.28,2.47-15.46.67-30.91,1.49-46.38,1.89-6,.16-11.93.5-17.89.25-.06-9.61-.23-19.23-.1-28.85,0-3-.83-3.75-3.74-3.71-11.65.16-23.3.12-34.95,0-2.37,0-4.75,1.34-7.11,0,1.37-.6,3.79,1,3.85-2.31.21-10.72.64-21.43,1-32.14.27-7.59-.31-15.19.65-22.76,35.38,0,70.76.07,106.14-.15,5.09,0,9,1,12.52,4.87,4.25,4.67,4.6,4.46,9.52.65a6.15,6.15,0,0,1,6.1-1.22c6.32,1.81,12.74,3.27,19.12,4.87,0,4.86-.35,4.36,4.17,4.22,2.19-.07,3.14.67,4,2.72,3.42,8.65,6.52,17.5,10.85,25.69,3.12,5.91,4.74,11.68,4.12,18.2a8.51,8.51,0,0,0,0,1.82c.23,1.76-.64,3.66.65,5.28,2.77,4.53,7.22,7.58,10.37,11.78C632.16,328,633.65,329.4,635,330.88Z" transform="translate(-0.18 -0.15)"/><path class="cls-3" d="M620.59,314.64c-1.29-1.62-.42-3.52-.65-5.28a8.51,8.51,0,0,1,0-1.82c.62-6.52-1-12.29-4.12-18.2-4.33-8.19-7.43-17-10.85-25.69-.81-2-1.76-2.79-4-2.72-4.52.14-4.2.64-4.17-4.22a15,15,0,0,1,1.87-2.37c5.12-4.43,5.42-9.17,1.34-14.51-1.19-1.56-2.94-4.27-2.38-5.25,1-1.72,3.85-.32,5.85-.83,11.59-.93,23.19-1.8,34.78-2.79,10-.85,19.93-1.84,29.89-2.73q19.95-1.8,39.88-3.53c.6-.06,1.21,0,1.82,0,2.33,5.49,3.62,11.31,5.37,17,.41,1.36.94,2.45,2.3,3,4.64,1.67,8,5,11.21,8.55,1.52,1.75,2.94,3.59,4.57,5.22,5.14,5.15,4.33,11.35,3.28,17.62-.2,1.24-1.18,1.82-2.21,2.29-2.85,1.32-5.66,2.68-8.53,3.93-1.36.59-2.19,1.35-2,2.95,1.37,9.46-1.95,17.86-5.9,26.12-.26.53-.57,1-.85,1.57a69.08,69.08,0,0,1-5.2-5.5,4.64,4.64,0,0,0-4.71-1.88q-30.1,3.26-60.2,6.43C638.24,312.83,629.41,313.73,620.59,314.64Z" transform="translate(-0.18 -0.15)"/><path class="cls-6" d="M443.44,247.69c-1,7.57-.38,15.17-.65,22.76-.37,10.71-.8,21.42-1,32.14-.06,3.33-2.48,1.71-3.85,2.31q-26-1.74-52.06-3.48L335.34,298a3.08,3.08,0,0,0-2.59-.38l-.26-.06-.26,0c-13.4-1-26.8-2.13-40.21-3-2.9-.18-3.18-1.19-2.83-3.67,1.22-8.59,2.24-17.22,3.34-25.83q2.81-21.24,5.62-42.46c1.35-10.13,2.72-20.25,4-30.37a27.56,27.56,0,0,0,.07-3c.05-2.42.18-4.85.12-7.27,0-1.5.52-1.91,2-1.81,9.57.68,19.16,1.28,28.73,1.95,10.08.7,20.16,1.47,30.24,2.15q31.15,2.12,62.34,4.14c5,.33,10.09.61,15.14.9a9.92,9.92,0,0,1,3.86.64q-.61,24.22-1.22,48.46a17.18,17.18,0,0,0,0,9.22Z" transform="translate(-0.18 -0.15)"/><path class="cls-1" d="M332.75,297.64a3.08,3.08,0,0,1,2.59.38C334.44,298.15,333.52,298.39,332.75,297.64Z" transform="translate(-0.18 -0.15)"/><path class="cls-4" d="M443.43,238.45q.61-24.24,1.22-48.46l1.26-22.72h26c.88,0,1.83.23,2.6-.47h29.76c.87.76,1.93.47,2.91.47q30.87,0,61.74,0c1,0,2,.29,2.92-.47h10.29c2.94,1,6,.25,9,.47,1.07.08,2.16,0,3.26,0,0,.45,0,.71-.08.81-5.64,5.68-4.84,3.76-.66,9.72,2.3,3.29,2.43,7,3,10.62,2.32,13.87,4.48,27.78,6.66,41.68a29.31,29.31,0,0,1,.14,3.64c-2,.51-4.85-.89-5.85.83-.56,1,1.19,3.69,2.38,5.25,4.08,5.34,3.78,10.08-1.34,14.51a15,15,0,0,0-1.87,2.37c-6.38-1.6-12.8-3.06-19.12-4.87a6.15,6.15,0,0,0-6.1,1.22c-4.92,3.81-5.27,4-9.52-.65-3.54-3.9-7.43-4.9-12.52-4.87-35.38.22-70.76.14-106.14.15l0,0C443.42,244.59,443.43,241.52,443.43,238.45Z" transform="translate(-0.18 -0.15)"/><path class="cls-5" d="M474.56,166.8c-.77.7-1.72.47-2.6.47h-26c0-.23,0-.45.07-.67Z" transform="translate(-0.18 -0.15)"/><path class="cls-5" d="M571.89,166.8c-.87.76-1.93.47-2.92.47q-30.87,0-61.74,0c-1,0-2,.29-2.91-.47,3.12-.05,6.25-.16,9.38-.16q27.43,0,54.87,0C569.68,166.64,570.79,166.74,571.89,166.8Z" transform="translate(-0.18 -0.15)"/><path class="cls-2" d="M443.43,238.45c0,3.07,0,6.14,0,9.22A17.18,17.18,0,0,1,443.43,238.45Z" transform="translate(-0.18 -0.15)"/></g></svg>